**ABCDEFGHIJKLMNOPQRSTUVWXYZabcdefghijklmnopqrstuvwxyz**************************
**PARASOLID !"#$%&'()*+,-./:;<=>?@[\]^_`{|}~0123456789**************************
**PART1;
MC=Intel x86/Windows NT;
MC_MODEL=genuineintel family 6 model 7 stepping 6, intel(r) core(tm)2 duo cpu     t9300  @ 2.50ghz;
MC_ID=tpenbchang;
OS=windows nt;
OS_RELEASE=5.1 (workstation) (build 2600: service pack 2) ;
FRU=mdc_ugii_v7.0_djl_can_vrh;
APPL=unigraphics;
SITE=unknown;
USER=chang;
FORMAT=text;
GUISE=transmit;
KEY=Relate;
FILE=D:\1_JERRY_SIEMENS\7_Jerry_Presentation\20090909_Velocity2009 Launch\Demo\Relate Command\Relate.x_t;
DATE=30-aug-2009;
**PART2;
SCH=SCH_1901310_19008;
USFLD_SIZE=0;
**PART3;
**END_OF_HEADER*****************************************************************
T51 : TRANSMIT FILE created by modeller version 190131023 SCH_1901310_19008_1300
6186 0 12 27 CCCCCCCCCCCCCCCCCCCCCCCA16 index_map_offset0 0 1 dA9 index_map82 0
 A17 node_id_index_map82 0 A20 schema_embedding_map82 0 Z1 12170 2 3 4 0 0 0 1e3
 1e-8 0 5 0 1 0 1 1 6 7 8 9 10 11 12 0 0 0 0 81 255 2 2 12133 13 1 14 0 0 0 15 1
6 70 11 CI9 list_type0 0 1 uI10 notransmit0 0 1 lCCCDCCDI12 finger_index0 0 1 dI
12 finger_block1012 0 CZ3 0 4 T1 0 0 7 20 1 17 17 50 255 4 133 0 1 18 0 0 +0 0 0
 0 0 1 1 0 0 13 255 6 3 0 1 0 19 0 0 20 0 51 255 7 12128 0 21 22 0 0 --.22955225
30977065 -.112 -.049 1 0 -46961079777139e-29 .01 -46961079777139e-29 0 -1 31 255
 8 12127 0 23 24 0 0 -.03 -.112 -.049 -1 0 -1734723475976805e-31 -17347234759768
05e-31 0 1 .01 29 255 9 11988 0 25 26 0 .03 -.222223456873214 -.0547650778701151
 19 255 10 1 0 1 20 0 27 V16 255 11 9637 0 ?28 0 29 30 0 0 1 18 255 12 11790 0 3
1 0 32 33 ?1 17 255 31 0 34 35 36 12 37 38 0 39 -18 32 11778 0 40 12 41 42 ?1 29
 33 11792 0 12 43 44 -.05 -.092 -.0424652800580552 29 43 11777 0 41 45 33 -.05 -
.092 -.079 29 44 11915 0 46 33 47 .03 -.078 -.0304652800580552 18 46 2127 0 48 4
9 50 44 ?1 29 47 11916 0 51 44 52 .03 -.0519615242270663 -.0304652800580552 18 5
1 1626 0 53 54 55 47 ?1 29 52 11917 0 50 47 56 .03 -.0519615242270663 -.019 18 5
0 1661 0 57 46 58 52 ?1 29 56 11922 0 59 52 42 .03 -.092 -.079 18 59 11772 0 60
 41 61 56 ?1 29 42 11923 0 32 56 62 .03 -.092 -.0424652800580552 29 62 11924 0 6
3 42 64 .03 -.09 -.0424652800580552 18 63 2140 0 65 66 49 62 ?1 29 64 11981 0 67
 62 68 .03 -.198784888078012 -.0247650778701151 18 67 9260 0 69 70 71 64 ?1 29 6
8 11982 0 72 64 73 .03 -.1869647267739115 -.019 18 72 9239 0 74 75 76 68 ?1 29 7
3 11983 0 75 68 77 .068 -.1869647267739115 -.019 18 75 9242 0 78 71 72 73 ?1 29
 77 11984 0 71 73 79 .068 -.198784888078012 -.02476507787011505 18 71 9251 0 80
 67 75 77 ?1 29 79 11985 0 81 77 82 .068 -.222223456873214 -.0547650778701151 18
 81 9446 0 83 84 25 79 ?1 29 82 11986 0 85 79 26 .068 -.210403295569113 -.079 18
 85 9425 0 86 87 88 82 ?1 29 26 11987 0 87 82 9 .03 -.210403295569113 -.079 18 8
7 9428 0 89 25 85 26 ?1 17 89 0 90 91 92 87 93 94 0 95 -18 25 9437 0 93 81 87 9
 ?1 17 93 0 96 69 97 25 89 94 0 98 +15 255 96 1418 0 65 99 0 17 69 0 96 74 93 67
 98 100 0 101 +17 97 0 96 93 60 87 102 103 0 0 -16 94 9440 0 ?93 104 105 106 0 0
 1 17 98 0 107 83 101 25 69 100 0 92 -15 107 2051 0 98 108 0 17 83 0 107 109 98
 81 92 104 0 110 +17 101 0 107 98 109 67 111 112 0 113 +16 100 9438 0 ?69 103 11
4 115 0 0 1 17 92 0 90 89 116 25 83 104 0 0 -15 90 9469 0 116 117 0 17 116 0 90
 92 91 81 86 118 0 0 -16 104 9449 0 ?83 118 94 119 0 0 1 16 118 9455 0 ?86 120 1
04 121 0 0 1 30 255 119 11989 0 104 122 123 0 -.1 -.222223456873214 -.0547650778
701151 -1 0 0 30 122 11935 0 124 125 119 0 +.03 -.092 -.0424652800580552 0 1 0 3
0 123 11990 0 112 119 115 0 -.05 -.198784888078012 -.0247650778701151 1 -1435178
184304056e-46 -1836944307706015e-46 16 112 9263 0 ?101 126 127 123 0 0 1 30 115
 11991 0 100 123 128 0 +.03 -.188145817215556 -.01114768814540514 -1982541115402
065e-31 .615661475325662 .78801075360672 31 128 11992 0 126 115 129 0 +.03 -.186
9647267739115 -.034 -1 0 -1734723475976805e-31 -1734723475976805e-31 0 1 .015 16
 126 9269 0 ?74 130 112 128 0 0 1 30 129 11993 0 131 128 132 0 +.072 -.186964726
7739115 -.019 1 486173068582902e-77 -2958228394578795e-46 16 131 9245 0 ?133 127
 134 129 0 0 1 31 132 11994 0 127 129 135 0 +.068 -.1869647267739115 -.034 1 0 -
46961079777139e-29 -46961079777139e-29 0 -1 .015 16 127 9254 0 ?80 112 131 132 0
 0 1 30 135 11995 0 114 132 121 0 +.068 -.1948544592311475 -.0197343583566403 -4
6961079777139e-29 -.615661475325662 -.78801075360672 16 114 9252 0 ?110 100 23 1
35 0 0 1 31 121 11996 0 118 135 136 0 +.068 -.210403295569113 -.064 1 0 -4696107
9777139e-29 -46961079777139e-29 0 -1 .015 30 136 11997 0 105 121 106 0 +.05 -.21
0403295569113 -.079 -1 0 0 16 105 9431 0 ?95 94 137 136 0 0 1 31 106 11998 0 94
 136 24 0 +.03 -.210403295569113 -.064 -1 0 -1734723475976805e-31 -1734723475976
805e-31 0 1 .015 31 24 12126 0 138 106 8 0 -.068 -.112 -.049 1 0 -46961079777139
e-29 -46961079777139e-29 0 -1 .01 16 138 3773 139 ?140 23 141 24 0 0 1 81 1 139
 3776 142 138 0 0 143 144 145 17 140 0 146 140 140 0 147 138 0 0 +16 23 3777 0 ?
148 114 138 8 0 0 1 16 141 3853 0 ?149 138 150 151 0 0 1 17 149 0 152 149 149 0
 153 141 0 0 +16 150 3849 144 ?154 141 124 155 0 0 1 31 151 10971 0 141 156 157
 0 --.068 -.135 -.049 -1 0 0 0 0 1 .018 31 156 10970 0 158 159 151 0 +-.068 -.01
200000000009156 -.067 -1 0 0 0 0 1 .012 30 157 11361 0 160 151 161 0 +-.068 -915
725828498637e-28 -.075 0 0 1 16 160 9607 162 ?163 164 165 157 0 0 1 30 161 11371
 0 166 157 167 0 +-.06 -915713605169383e-28 -.005 0 0 -1 16 166 3509 0 ?168 169
 170 161 0 0 1 30 167 11381 0 171 161 172 0 +-.05 -.033166247903554 .045 0 0 -1
 16 171 1651 0 ?173 174 175 167 0 0 1 30 172 11391 0 176 167 177 0 +-.068 -.17 -
.075 0 0 1 16 176 9376 0 ?178 179 103 172 0 0 1 30 177 11411 0 130 172 180 0 +-.
09 -.157087596514401 -.01899999956915505 1 852189463090774e-32 -606364310341098e
-31 16 130 9307 0 ?181 182 126 177 0 0 1 30 180 11412 0 183 177 184 0 --.09 -.02
27834620192929 -.0001247844032303182 1 836838565899048e-31 -50073106162523e-30 1
6 183 3523 0 ?185 186 187 180 0 0 1 30 184 11413 0 188 180 189 0 --.068 -.126223
7944997192 -.01466237507192232 69896592197696e-30 -.990268068741571 -.1391731009
600654 16 188 9302 0 ?190 187 191 184 0 0 1 31 189 11414 0 186 184 192 0 +-.068
 -.0200000000000916 -.01993014577806175 -1 0 0 0 0 1 .02 16 186 3529 0 ?193 194
 183 189 0 0 1 30 192 11415 0 187 189 195 0 +.1 -91551766168152e-27 -.0199301457
780618 1 1224646799147352e-31 -326013002257153e-30 16 187 3511 0 ?196 183 188 19
2 0 0 1 38 255 195 11416 0 194 192 197 0 +198 199 200 201 202 16 194 3535 0 ?203
 204 186 195 0 0 1 32 255 197 11418 0 205 195 206 0 -0 1734723475976805e-33 .003
077222366371335 612323399573677e-31 -.1391731009600654 .990268068741571 43569073
7763391e-30 -.99026806874157 -.1391731009600654 .0605896543511171 .06 51 198 114
17 0 207 208 209 210 +.1 -.02000000000009155 -.0199301457780618 1 12246467991473
52e-31 -326013002257153e-30 .02 -326013002257153e-30 0 -1 51 199 28 0 211 212 21
3 214 +0 1734723475976805e-33 .045 0 0 -1 .06 -1 0 0 40 255 7 200 0 1 7 .0011463
08450390036 .3439804064837715 ??-.06 -915713605169383e-28 -.01993014577806175 -.
0599894486790313 -.00112518762252133 -.01331641326823636 -.0598403832021413 -.00
437361843567555 -.00744750987039868 -.0592698541369416 -.0093319017668249 -.0030
12945061472355 -.0580286187804363 -.0152538323851677 -.000501458406778829 -.0560
350138395062 -.02144941080790675 1726528979838395e-20 -.0555059815673125 -.02278
34591370399 -.0001247839981563064 41 255 1 201 L-.06 -915713605169383e-28 -.0199
3014577806175 41 1 202 L-.0555059815673125 -.0227834591370399 -.0001247839981563
064 14 255 211 25 215 ?216 217 218 6 199 +0 0 216 217 27 50 212 1432 0 19 219 19
9 0 +-.05 -.13 .035 1 0 0 0 0 -1 50 213 1606 0 220 199 221 0 +.1 -91551766168152
e-27 .035 -1224646799147352e-31 1 0 -1 -1224646799147352e-31 0 141 255 214 195 2
22 223 199 141 222 224 225 214 199 141 223 226 214 227 199 38 226 9069 0 228 229
 230 0 +231 199 232 233 234 141 227 235 223 236 199 38 235 9994 0 237 238 239 0
 +240 199 241 242 243 141 236 239 227 225 199 38 239 10002 0 244 235 245 0 +246
 199 247 248 249 141 225 250 236 222 199 38 250 10006 0 251 245 224 0 +252 199 2
53 254 255 16 251 7581 0 ?256 257 258 250 0 0 1 31 245 10005 0 259 239 250 0 -0
 1734723475976805e-33 .025 0 0 -1 -1 0 0 .06 38 224 10014 0 134 250 260 0 +261 1
99 262 263 264 51 252 10007 0 265 246 261 266 +-.03 .105185251619251 .017 0 1 0
 .008 0 0 1 40 6 253 0 1 6 .000768889692411044 .3772557544389675 ??-.03 .0519615
242270663 .025 -.0333973607093293 .0498459255872629 .02424278539035265 -.0359450
904582715 .0480411331251322 .02235312053320015 -.0373033775767422 .0469942339161
626 .02026506906076105 -.03791621889262365 .0465011864890204 .01815476337146135
 -.038 .0464327470649756 .017 41 1 254 L-.03 .0519615242270663 .025 41 1 255 L-.
038 .0464327470649756 .017 14 265 7596 267 ?268 269 270 6 252 -0 0 268 269 27 51
 246 10000 0 269 240 252 271 +-.03 .105185251619251 -.017 0 1 0 .008 0 0 1 51 26
1 10012 0 268 252 272 273 +.03 .105185251619251 .017 0 1 0 .008 0 0 1 141 266 25
0 274 274 252 141 274 275 266 266 252 38 275 11756 0 258 276 277 0 +278 252 279
 280 281 16 258 7576 0 ?282 251 283 275 0 0 1 31 276 11755 0 284 285 275 0 -0 -.
011 .025 0 0 -1 -1 0 0 .042 30 277 11757 0 286 275 287 0 +-.038 .006888543819998
33 .017 0 0 -1 51 278 11754 0 288 289 290 291 +0 -.011 .1920937271229855 0 0 -1
 .042 -1 0 0 40 6 279 0 1 6 .00101408007040997 .3546799590515255 ??-.038 .006888
54381999833 .017 -.0379000256019163 .00709939389521341 .0182607916120703 -.03753
24494092618 .00784980746164806 .0196948480285373 -.03650607805824455 .0097679143
104298 .0216552065797372 -.03374940551741615 .0139995525404156 .0240669624497353
5 -.03 .01839387691339815 .025 41 1 280 L-.038 .00688854381999833 .017 41 1 281
 L-.03 .01839387691339815 .025 14 288 67 292 ?293 294 295 6 278 -0 0 293 294 27
 51 289 11424 0 296 209 278 0 +-.09 -.155 -.0338540206002786 -1 0 29793377913480
55e-46 .015 2979337791348055e-46 0 1 50 290 11936 0 99 278 297 0 +.03 -.13 -.005
 -1 0 -1734723475976805e-31 -1734723475976805e-31 0 1 141 291 285 298 299 278 38
 285 11753 0 300 301 276 0 +278 261 302 303 304 141 298 30 305 291 278 141 299 2
75 291 306 278 141 306 287 299 307 278 38 287 11758 0 308 277 309 0 +278 246 310
 311 312 141 307 313 306 305 278 38 313 11760 0 314 309 315 0 +278 240 316 317 3
18 141 305 319 307 298 278 38 319 11762 0 320 315 321 0 +322 278 323 324 325 16
 320 9539 0 ?326 327 120 319 0 0 1 31 315 11761 0 328 313 319 0 -0 -.011 -.079 0
 0 -1 -1 0 0 .042 30 321 11763 0 329 319 330 0 +.04053393639904735 -915606799804
13e-27 -.055 0 0 -1 51 322 9579 0 331 332 333 334 +.1 -.01200000000009154 -.067
 -1 -1224646799147352e-31 0 .012 1224646799147352e-31 -1 0 40 6 323 0 1 6 .00071
0043341730033 .3471454732434745 ??.04053393639904735 -915590486605966e-28 -.067
 .04070479266548145 -.000650127823969598 -.0708962034836097 .04113412607504195 -
.002515680814434495 -.0743517133774772 .04163362611908235 -.00546455275732273 -.
0770641904461802 .0419617609186151 -.00920817952657508 -.0786707214191606 .04198
809355043185 -.01200000000009156 -.079 41 1 324 L.04053393639904735 -91559048660
5966e-28 -.067 41 1 325 L.04198809355043185 -.01200000000009156 -.079 14 331 956
7 335 ?336 117 337 6 322 +0 0 336 117 27 51 332 9418 0 338 339 322 0 +.1 -.155 -
.064 1 0 0 .015 0 0 -1 51 333 9662 0 336 322 340 341 +.1 -.01200000000009154 -.0
67 -1 -1224646799147352e-31 0 .012 1224646799147352e-31 -1 0 141 334 319 334 334
 322 14 336 9650 342 ?343 331 344 6 333 +0 0 343 331 27 50 340 9693 0 345 333 34
6 0 +0 1734723475976805e-33 .055 0 0 -1 -1 0 0 141 341 30 341 341 333 38 30 1176
6 0 11 347 348 0 +333 278 349 350 351 30 347 11765 0 352 330 30 0 +-.04053393639
904735 -915706079315066e-28 -.055 0 0 -1 31 348 11908 0 175 30 353 0 -0 17347234
75976805e-33 -.0304652800580552 0 0 1 1 0 0 .06 40 6 349 0 1 6 .0007053130502802
08 .3444789060197175 ??-.04198809355043185 -.01200000000009158 -.079 -.041901653
94281615 -.00812747552552101 -.0783579731551827 -.0415226457139025 -.00468573892
543749 -.0765132320970215 -.04101995272663785 -.00197982936389805 -.073602740372
1156 -.04062691760755365 -.0003485416158608395 -.0698711526466803 -.040533936399
04735 -915690489225284e-28 -.067 41 1 350 L-.04198809355043185 -.012000000000091
58 -.079 41 1 351 L-.04053393639904735 -915690489225284e-28 -.067 16 175 1291 0
 ?354 171 355 348 0 0 1 31 353 11912 0 356 348 357 0 -0 340005801291454e-32 -.01
9 2958228394578795e-46 -1387778780781446e-31 1 0 -1 -1387778780781444e-31 .06 16
 356 3590 0 ?358 329 205 353 0 0 1 31 357 11926 0 359 353 360 0 -.03 -.078 -.042
4652800580552 -1 0 -1734723475976805e-31 -1734723475976805e-31 0 1 .012 16 359 2
155 0 ?65 361 362 357 0 0 1 30 360 11927 0 363 357 364 0 +.03 -.13 -.03046528005
80552 0 1 0 16 363 2128 0 ?53 365 164 360 0 0 1 30 364 11928 0 174 360 366 0 +.0
3 -.0519615242270663 -.019 0 0 -1 16 174 1662 0 ?367 205 171 364 0 0 1 30 366 11
929 0 164 364 368 0 +.03 -.1248263261031506 -.019 -1172667260671916e-31 1 138777
8780781446e-31 16 164 9240 0 ?57 363 160 366 0 0 1 30 368 11933 0 103 366 125 0
 +.03 -.17 -.079 -1224646799147352e-31 1 0 16 103 9429 0 ?102 176 100 368 0 0 1
 30 125 11934 0 369 368 122 0 +.03 -.092 -.079 -189926018727759e-30 0 1 16 369 1
1819 0 ?370 371 372 125 0 0 1 17 370 0 373 39 374 32 60 369 0 375 +16 371 11820
 0 ?39 376 369 377 0 0 1 16 372 11818 0 ?374 369 38 378 0 0 1 17 374 0 373 370 3
7 59 379 372 0 0 +16 38 11817 0 ?37 372 0 380 0 0 1 30 378 11862 0 372 380 377 0
 +-.05 -.092 -.079 1 0 0 30 380 11863 0 38 0 378 0 +-.05 -.092 -.042465280058055
2 0 0 -1 30 377 11860 0 371 378 381 0 +.05 -.092 -.0424652800580552 -1 0 0 30 38
1 11852 0 376 377 382 0 +-.05 -.092 -.0424652800580552 0 1 0 16 376 11810 0 ?35
 124 371 381 0 0 1 30 382 1945 0 179 381 155 0 +-.05 -.17 .035 0 0 -1 16 179 931
4 0 ?383 384 176 382 0 0 1 31 155 8308 0 150 382 385 0 --.05 -.135 -.049 1 0 0 0
 0 -1 .018 30 385 8390 0 386 155 387 0 -.1 -.078 -.0304652800580552 -1 -12246467
99147352e-31 0 16 386 2134 0 ?388 362 352 385 0 0 1 30 387 8391 0 365 385 389 0
 +-.05 -.13 -.0304652800580552 0 1 0 16 365 2131 0 ?390 391 363 387 0 0 1 30 389
 8395 0 362 387 392 0 +.1 -.09 -.0424652800580552 -1 -1224646799147352e-31 0 16
 362 2149 0 ?393 359 386 389 0 0 1 31 392 8396 0 361 389 394 0 --.05 -.078 -.042
4652800580552 1 0 0 0 0 -1 .012 16 361 2160 0 ?395 191 359 392 0 0 1 30 394 8854
 0 384 392 396 0 +-.05 -.17 -.079 -1224646799147352e-31 1 0 16 384 9364 0 ?36 16
5 179 394 0 0 1 30 396 9056 0 169 394 229 0 -.06 -915566647553485e-28 -.045 0 0
 -1 16 169 1325 0 ?397 259 166 396 0 0 1 30 229 9066 0 398 396 226 0 -.05 -.0200
0000000009155 -.019 1 1224646799147354e-31 -278827451039793e-45 16 398 3592 0 ?3
99 228 400 229 0 0 1 17 399 0 401 358 402 403 404 398 0 405 +16 228 3598 0 ?406
 407 398 226 0 0 1 16 400 3583 0 ?408 398 204 409 0 0 1 17 408 0 410 411 412 413
 414 400 0 404 +16 204 3574 0 ?415 400 194 230 0 0 1 31 409 10878 0 400 416 417
 0 +.068 -.02000000000009155 -.039 1 0 -46961079777139e-29 -46961079777139e-29 0
 -1 .02 30 416 10877 0 191 260 409 0 -.068 -.1248263261031506 -.019 117266726067
1916e-31 -1 -1387778780781446e-31 30 417 10879 0 165 409 418 0 +.068 -9155176616
8152e-27 -.01589664090487855 -46961079777139e-29 -575107360335768e-46 -1 16 165
 3571 143 ?419 160 384 417 0 0 1 31 418 10880 0 420 417 421 0 +.068 -.0120000000
0009156 -.067 1 0 -46961079777139e-29 -46961079777139e-29 0 -1 .012 16 420 9554
 0 ?422 423 327 418 0 0 1 31 421 10968 0 424 418 159 0 +-.068 -.155 -.064 -1 0 0
 0 0 1 .015 16 424 9378 0 ?425 426 427 421 0 0 1 30 159 10969 0 428 421 156 0 +-
.068 -.13 -.079 0 1 0 16 428 9367 0 ?429 170 391 159 0 0 1 17 429 0 430 431 432
 433 434 428 0 435 +16 170 9426 0 ?436 166 428 260 0 0 1 16 391 9305 0 ?437 428
 365 206 0 0 1 17 437 0 438 439 181 58 440 391 0 441 +30 206 11419 0 391 197 442
 0 +-.05 -.1262237944997192 -.01466237507192234 -69896592197696e-30 .99026806874
1571 .1391731009600654 31 442 11420 0 182 206 443 0 +-.05 -.155 -.03385402060027
86 1 0 0 0 0 -1 .015 16 182 9316 0 ?444 445 130 442 0 0 1 30 443 11421 0 445 442
 446 0 --.072 -.17 -.0338540206002786 1 0 -2979337791348055e-46 16 445 9325 0 ?4
47 448 182 443 0 0 1 31 446 11422 0 448 443 449 0 +-.068 -.155 -.033854020600278
6 -1 0 0 0 0 1 .015 16 448 9331 0 ?450 427 445 446 0 0 1 30 449 11658 0 451 446
 452 0 -.038 .0464327470649756 .017 0 -1 0 16 451 7633 0 ?453 300 257 449 0 0 1
 30 452 11662 0 257 449 454 0 +.03 .0124899959967968 .025 0 -1 0 16 257 7621 0 ?
455 451 251 452 0 0 1 30 454 11670 0 283 452 456 0 --.03 .0464327470649756 .025
 0 -1 0 16 283 7570 0 ?457 258 458 454 0 0 1 30 456 11674 0 458 454 459 0 +-.038
 .0124899959967968 .017 0 -1 0 16 458 7558 0 ?460 283 244 456 0 0 1 30 459 11682
 0 461 456 462 0 --.038 .0464327470649756 -.017 0 -1 0 16 461 7507 0 ?463 308 46
4 459 0 0 1 30 462 11686 0 464 459 465 0 +-.03 .0124899959967968 -.025 0 -1 0 16
 464 7495 0 ?466 461 237 462 0 0 1 30 465 11694 0 467 462 468 0 -.03 .0464327470
649756 -.025 0 -1 0 16 467 7444 0 ?469 314 407 465 0 0 1 30 468 11698 0 407 465
 470 0 +.038 .0124899959967968 -.017 0 -1 0 16 407 7432 0 ?471 467 228 468 0 0 1
 30 470 11706 0 327 468 472 0 -.1 -.01200000000009154 -.079 -1 -1224646799147352
e-31 0 16 327 9548 0 ?473 420 320 470 0 0 1 30 472 11710 0 120 470 474 0 +.1 -91
551766168152e-27 -.067 -1 -1224646799147352e-31 0 16 120 9530 0 ?475 320 118 472
 0 0 1 30 474 11718 0 355 472 476 0 +612323399573677e-32 -915656439559598e-28 -.
055 1 1224646799147352e-31 0 16 355 1281 0 ?477 175 478 474 0 0 1 30 476 11724 0
 478 474 479 0 +612323399573677e-32 -915656439559598e-28 -.055 1 122464679914735
2e-31 0 16 478 1612 0 ?480 355 481 476 0 0 1 30 479 11730 0 423 476 482 0 +.1 -9
1551766168152e-27 -.067 -1 -1224646799147352e-31 0 16 423 9613 0 ?483 158 420 47
9 0 0 1 30 482 11732 0 29 479 484 0 -.1 -.01200000000009156 -.079 -1 -1224646799
147352e-31 0 16 29 9631 0 ?431 11 158 482 0 0 1 31 484 11751 0 485 482 301 0 +0
 -.011 .055 0 0 -1 -1 0 0 .042 16 485 58 0 ?486 487 328 484 0 0 1 30 301 11752 0
 481 484 285 0 -.038 .00688854381999833 -.017 0 0 -1 16 481 7427 0 ?488 478 489
 301 0 0 1 17 488 0 490 453 471 76 491 481 0 492 +16 489 7490 0 ?493 481 286 309
 0 0 1 17 493 0 494 469 466 495 496 489 0 497 +16 286 7553 0 ?498 489 284 277 0
 0 1 31 309 11759 0 489 287 313 0 -0 -.011 -.025 0 0 1 1 0 0 .042 17 498 0 499 4
63 460 500 501 286 0 502 +16 284 7616 0 ?503 286 504 276 0 0 1 17 503 0 505 457
 455 506 507 284 0 282 +16 504 5 0 ?508 284 487 509 0 0 1 17 508 0 218 508 508 0
 510 504 0 0 +16 487 19 511 ?512 504 485 513 0 0 1 31 509 9692 0 504 514 513 0 +
0 1734723475976805e-33 .055 0 0 -1 1 0 0 .06 31 514 9395 0 137 515 509 0 +-.05 -
.155 -.064 1 0 0 0 0 -1 .015 31 513 9816 0 487 509 516 0 +0 1734723475976805e-33
 -.055 0 0 -1 1 0 0 .06 30 516 9954 0 517 513 518 0 +-.038 .0464327470649756 .04
5 0 0 -1 16 517 7556 0 ?519 520 259 516 0 0 1 30 518 9972 0 521 516 238 0 -.038
 .0464327470649756 .045 0 0 -1 16 521 7430 0 ?522 523 520 518 0 0 1 31 238 9993
 0 520 518 235 0 -0 1734723475976805e-33 -.025 0 0 1 1 0 0 .06 16 520 7493 0 ?52
4 521 517 238 0 0 1 17 524 0 525 526 527 528 529 520 0 469 +15 525 172 0 522 211
 530 17 526 0 525 522 524 531 532 237 0 533 +17 527 0 525 524 519 534 535 244 0
 529 +18 528 7438 0 524 495 531 536 ?1 17 529 0 494 466 469 534 524 520 0 537 -1
7 469 0 494 529 493 528 538 467 0 532 +15 494 252 0 529 539 0 17 538 0 540 541 5
32 495 469 467 0 0 -17 532 0 540 538 542 528 526 237 0 0 -15 540 7471 0 532 543
 0 17 542 0 540 532 541 531 471 407 0 0 -16 237 7455 0 ?526 464 314 235 0 0 1 16
 314 7450 0 ?497 237 467 313 0 0 1 17 497 0 544 496 491 495 541 314 0 538 +15 54
4 166 0 491 288 545 17 496 0 544 502 497 546 493 489 0 0 -17 491 0 544 497 547 5
48 488 481 0 0 -18 495 7441 0 493 546 528 549 ?1 17 541 0 540 542 538 548 497 31
4 0 471 -18 548 7426 0 541 531 403 550 ?1 17 471 0 490 488 533 548 542 407 0 491
 +15 490 246 0 488 551 0 17 533 0 490 471 453 531 522 521 0 542 -17 453 0 490 53
3 488 552 492 451 0 522 +18 531 7429 0 526 528 548 553 ?1 17 522 0 525 554 526 5
52 533 521 0 555 +17 554 0 525 556 522 557 555 134 0 558 +18 552 7627 0 453 76 5
57 559 ?1 17 555 0 560 492 561 552 554 134 0 0 -15 560 7660 0 555 268 0 17 492 0
 560 562 555 76 453 451 0 0 -17 561 0 560 555 562 557 455 257 0 0 -16 134 7644 0
 ?554 131 300 224 0 0 1 16 300 7639 0 ?547 134 451 285 0 0 1 17 547 0 544 491 50
7 76 562 300 0 488 +17 507 0 544 547 282 563 503 284 0 0 -18 76 7630 0 547 72 55
2 564 ?1 17 562 0 560 561 492 563 547 300 0 455 -18 563 7615 0 562 557 565 566 ?
1 17 455 0 505 503 558 563 561 257 0 507 +15 505 264 0 558 567 0 17 558 0 505 45
5 457 557 556 259 0 561 -17 457 0 505 558 503 565 568 283 0 569 +18 557 7618 0 5
54 552 563 570 ?1 17 556 0 525 256 554 565 558 259 0 457 +16 259 7619 0 ?556 517
 169 245 0 0 1 17 256 0 525 519 556 571 569 251 0 572 +18 565 7567 0 556 563 506
 573 ?1 18 506 7564 0 503 565 571 574 ?1 29 573 9983 0 565 575 576 -.03 .0519615
242270663 .025 29 575 9982 0 534 577 573 -.03 .0519615242270663 -.025 29 576 998
4 0 571 573 559 -.038 .0464327470649756 .017 18 571 7555 0 256 506 578 576 ?1 29
 559 9989 0 552 576 570 .038 .0464327470649756 .017 29 570 9990 0 557 559 579 .0
3 .0519615242270663 .025 29 579 10869 0 413 570 580 .068 -.02000000376174205 -.0
19 18 413 3580 0 402 403 581 579 ?1 29 580 10870 0 581 579 582 .068 -91550100833
615e-27 -.039 18 581 3570 0 414 413 583 580 ?1 29 582 10871 0 84 580 584 .068 -9
1551766168152e-27 -.067 18 84 9523 0 422 585 81 582 ?1 29 584 10872 0 586 582 58
7 .068 -.01200000000009154 -.079 18 586 9545 0 473 588 589 584 ?1 29 587 10959 0
 590 584 591 -.068 -.17 -.064 18 590 9375 0 425 88 592 587 ?1 29 591 10960 0 592
 587 593 -.068 -.155 -.079 18 592 9366 0 594 590 595 591 ?1 29 593 10961 0 433 5
91 596 -.068 -.01200000000009158 -.079 18 433 9619 0 597 61 598 593 ?1 29 596 10
962 0 588 593 599 -.068 -915725828498637e-28 -.067 18 588 9606 0 600 598 586 596
 ?1 29 599 11402 0 601 596 602 -.068 -.0227834591282405 -.0001247839969194062 18
 601 3517 0 190 603 604 599 ?1 29 602 11403 0 66 599 605 -.068 -915725828498637e
-28 -.0199301457780617 18 66 3504 0 163 604 63 602 ?1 29 605 11404 0 604 602 606
 -.06 -915713605169383e-28 -.01993014577806175 18 604 3508 0 607 601 66 605 ?1 2
9 606 11405 0 603 605 608 -.0555059815673126 -.02278345913703995 -.0001247839981
560804 18 603 3520 0 203 583 601 606 ?1 29 608 11406 0 58 606 609 -.05 -.0331662
47903554 -.001583989797940575 18 58 1648 0 437 50 54 608 ?1 29 609 11407 0 610 6
08 611 -.05 -.15708759379172 -.0189999991865072 18 610 9304 0 612 613 70 609 ?1
 29 611 11408 0 613 609 614 -.05 -.17 -.0338540206002786 18 613 9313 0 444 615 6
10 611 ?1 29 614 11409 0 615 611 616 -.068 -.17 -.0338540206002786 18 615 9322 0
 178 595 613 614 ?1 29 616 11410 0 70 614 564 -.068 -.1570875937941435 -.0189999
991868478 18 70 9301 0 450 610 67 616 ?1 29 564 11737 0 76 616 566 .038 .0068885
4381999833 .017 29 566 11738 0 563 564 574 .03 .01839387691339815 .025 29 574 11
739 0 506 566 617 -.03 .01839387691339815 .025 29 617 11740 0 578 574 618 -.038
 .00688854381999833 .017 18 578 7552 0 619 571 620 617 ?1 29 618 11741 0 500 617
 621 -.038 .00688854381999833 -.017 18 500 7501 0 498 620 534 618 ?1 29 621 1174
2 0 546 618 549 -.03 .01839387691339815 -.025 18 546 7489 0 622 534 495 621 ?1 2
9 549 11743 0 495 621 550 .03 .01839387691339815 -.025 29 550 11744 0 548 549 62
3 .038 .00688854381999833 -.017 29 623 11745 0 589 550 624 .04198809355043185 -.
01200000000009156 -.079 18 589 9536 0 625 586 585 623 ?1 29 624 11746 0 585 623
 626 .04053393639904735 -915590486605966e-28 -.067 18 585 9527 0 627 589 84 624
 ?1 29 626 11747 0 55 624 628 .04053393639904735 -91560679980413e-27 -.055 18 55
 1615 0 629 51 630 626 ?1 29 628 11748 0 630 626 631 -.04053393639904735 -915706
079315066e-28 -.055 18 630 1609 0 632 55 633 628 ?1 29 631 11749 0 598 628 45 -.
04053393639904735 -915689766116902e-28 -.067 18 598 9610 0 28 433 588 631 ?1 29
 45 11750 0 61 631 43 -.04198809355043185 -.01200000000009158 -.079 18 61 9628 0
 431 59 433 45 ?1 17 431 0 430 625 429 61 435 29 0 634 +15 430 1622 0 429 635 0
 17 625 0 430 473 431 589 634 328 0 326 +17 435 0 344 600 636 433 431 29 0 0 -17
 634 0 545 28 326 61 625 328 0 636 -15 545 104 0 634 288 0 17 28 0 545 632 634 5
98 636 11 0 637 +17 326 0 545 634 638 589 627 320 0 639 +16 328 9629 0 ?625 485
 523 315 0 0 1 17 636 0 344 435 640 61 28 11 0 0 -15 344 9651 0 636 336 0 17 640
 0 344 636 600 598 483 423 0 0 -17 600 0 344 640 435 588 597 158 0 483 -17 483 0
 641 163 637 588 640 423 0 642 +15 641 1760 0 637 217 0 17 163 0 641 196 483 66
 642 160 0 193 +17 637 0 641 483 480 598 632 352 0 640 +17 642 0 643 597 193 588
 163 160 0 0 -15 643 1403 0 642 644 152 17 597 0 643 434 642 433 600 158 0 429 +
17 193 0 643 642 190 66 645 186 0 646 +17 190 0 643 193 450 601 647 188 0 185 +1
7 645 0 648 649 646 601 193 186 0 0 -17 646 0 648 645 607 66 196 187 0 0 -15 648
 3549 0 645 207 0 17 607 0 648 646 649 604 203 194 0 196 -17 196 0 641 168 163 6
04 646 187 0 650 +17 168 0 641 480 196 633 650 166 0 651 +17 650 0 530 203 652 6
04 168 166 0 0 -15 530 1709 0 405 211 0 17 203 0 530 653 650 603 607 194 0 439 +
17 652 0 530 650 654 633 512 487 0 0 -17 654 0 530 652 406 655 397 169 0 477 -18
 633 1277 0 168 630 655 656 ?1 17 512 0 657 658 651 655 652 487 0 654 +15 657 84
 0 658 293 0 17 658 0 657 659 512 55 477 355 0 0 -17 651 0 657 512 659 633 480 4
78 0 652 -18 655 1361 0 512 633 660 661 ?1 18 660 11824 0 662 655 0 663 ?1 29 66
1 9811 0 655 664 656 .06 -915566647553485e-28 -.055 29 664 9386 0 88 665 661 -.0
5 -.17 -.064 29 656 9812 0 633 661 536 -.06 -915713605169383e-28 -.055 29 536 99
75 0 528 656 553 .03 .0519615242270663 -.025 29 553 9976 0 531 536 577 .038 .046
4327470649756 -.017 29 577 9981 0 620 553 575 -.038 .0464327470649756 -.017 18 6
20 7504 0 519 578 500 577 ?1 17 519 0 525 527 256 620 572 517 0 463 +17 572 0 49
9 460 463 571 519 517 0 666 -17 463 0 499 572 498 620 667 461 0 535 +15 499 258
 0 572 668 0 17 667 0 669 622 535 500 463 461 0 0 -17 535 0 669 667 537 620 527
 244 0 0 -15 669 7534 0 535 269 0 17 537 0 669 535 622 534 466 464 0 0 -16 244 7
518 0 ?527 458 308 239 0 0 1 16 308 7513 0 ?502 244 461 287 0 0 1 17 502 0 544 5
01 496 500 622 308 0 667 +17 501 0 544 282 502 578 498 286 0 0 -17 622 0 669 537
 667 546 502 308 0 466 -17 466 0 494 493 529 546 537 464 0 496 +17 282 0 544 507
 501 506 619 258 0 568 +17 619 0 270 666 568 578 282 258 0 460 -17 568 0 270 619
 569 506 457 283 0 0 -15 270 7597 0 569 265 0 17 569 0 270 568 666 565 256 251 0
 0 -17 666 0 270 569 619 571 460 458 0 0 -17 460 0 499 498 572 578 666 458 0 501
 +18 534 7492 0 527 500 546 575 ?1 14 269 7533 670 ?265 543 669 6 246 -0 0 265 5
43 27 81 1 670 12160 671 269 672 0 673 267 674 14 543 7470 673 ?269 675 540 6 24
0 -0 0 269 675 27 13 27 1772 0 0 0 0 0 0 10 19 14 19 3842 676 ?99 0 677 6 212 +0
 0 99 0 27 81 1 676 12134 671 19 678 0 0 679 680 14 99 3762 679 ?644 19 681 6 29
0 +0 0 644 19 27 15 677 3839 0 154 19 34 17 154 0 677 154 154 0 682 150 0 0 +15
 34 1652 0 31 19 0 17 682 0 683 682 682 0 154 150 0 0 -15 683 3858 0 682 675 684
 14 675 3856 685 ?543 21 683 6 686 +0 0 543 21 27 15 684 3859 0 153 675 0 17 153
 0 684 153 153 0 149 141 0 0 -81 1 685 12158 671 675 687 0 688 673 689 14 21 378
4 688 ?675 690 691 6 7 +0 0 675 690 27 51 686 8310 0 675 692 693 0 --.3684387523
62298 -.135 -.049 1 0 0 .018 0 0 -1 50 692 7407 0 551 694 686 0 +.038 .105185251
619251 .023 -1 0 0 0 0 1 50 693 8397 0 695 686 696 0 +-.05 -.13 -.03046528005805
52 0 0 1 1 0 0 14 695 1413 697 ?220 635 698 6 693 +0 0 220 635 27 51 696 8398 0
 699 693 700 0 +.1 -.078 -.0424652800580552 1 1224646799147352e-31 0 .012 -12246
46799147352e-31 1 0 14 699 2173 701 ?207 108 702 6 696 +0 0 207 108 27 50 700 88
60 0 635 696 231 0 +.1 -.13 -.079 0 0 -1 -1 0 0 14 635 1398 703 ?695 567 430 6 7
00 +0 0 695 567 27 51 231 9070 0 690 700 339 704 +.1 -.02000000000009155 -.039 1
 1224646799147352e-31 342276635025492e-31 .02 -1224646799147354e-31 1 0 14 690 3
611 705 ?21 207 706 6 231 +0 0 21 207 27 50 339 9075 0 216 231 332 0 +.05 -.1248
263261031506 -.019 2958228394578795e-46 -1387778780781446e-31 1 1 11726672606719
14e-31 -197215226305253e-45 141 704 226 704 704 231 14 216 1389 707 ?294 211 401
 6 339 +0 0 294 211 27 81 1 707 12140 671 216 708 0 215 709 710 14 294 1407 709
 ?288 216 438 6 209 +0 0 288 216 27 15 401 1391 0 711 216 0 17 711 0 401 133 358
 72 57 164 0 712 -17 133 0 401 402 711 75 712 131 0 411 +17 358 0 401 711 399 50
 405 356 0 713 +17 57 0 96 367 74 50 711 164 0 358 +17 712 0 714 113 78 72 133 1
31 0 0 -15 714 9283 0 113 715 0 17 113 0 714 111 712 67 74 126 0 0 -17 78 0 714
 712 111 75 80 127 0 133 -17 111 0 714 78 113 71 101 112 0 0 -17 80 0 410 110 41
1 71 78 127 0 109 +15 410 1397 0 436 716 146 17 110 0 410 86 80 81 109 114 0 116
 +17 411 0 410 80 408 75 402 191 0 0 -17 109 0 107 101 83 71 110 114 0 111 -17 4
02 0 401 399 133 413 411 191 0 408 +16 191 9243 0 ?402 188 361 416 0 0 1 17 86 0
 410 436 110 85 116 118 0 717 +17 436 0 410 422 86 586 717 170 0 718 +17 717 0 4
30 95 473 85 436 170 0 91 -17 95 0 430 102 717 87 91 105 0 97 +17 473 0 430 717
 625 586 639 327 0 436 +17 91 0 90 116 89 85 95 105 0 0 -17 639 0 337 627 718 58
9 473 327 0 0 -15 337 9568 0 718 331 0 17 627 0 337 719 639 585 326 320 0 475 -1
7 718 0 337 639 719 586 422 420 0 0 -17 719 0 337 718 627 84 475 120 0 0 -17 422
 0 410 412 436 84 718 420 0 419 +17 412 0 410 408 422 581 419 165 0 0 -17 419 0
 720 475 415 84 412 165 0 719 +15 720 1422 0 419 220 0 17 475 0 720 629 419 585
 719 120 0 638 +17 415 0 720 419 397 581 721 204 0 412 +17 397 0 720 415 477 583
 654 169 0 721 +17 721 0 706 722 414 583 415 204 0 0 -15 706 3612 0 722 690 0 17
 722 0 706 404 721 403 406 228 0 0 -17 414 0 706 721 404 581 408 400 0 415 -18 5
83 3567 0 406 581 603 723 ?1 17 406 0 530 654 405 583 722 228 0 397 +29 723 9061
 0 583 724 665 .06 -915566647553485e-28 -.039 29 724 9060 0 403 725 723 .0565685
41166521 -.0200000037572905 -.019 29 665 9365 0 595 723 664 -.05 -.155 -.079 18
 595 9363 0 726 592 615 665 ?1 17 726 0 34 36 383 595 727 137 0 728 +17 36 0 34
 31 726 41 728 384 0 379 +17 383 0 34 726 444 88 729 179 0 727 +17 727 0 730 731
 732 88 726 137 0 0 -16 137 9393 0 ?726 105 426 514 0 0 1 17 728 0 430 432 379 5
95 36 384 0 732 -17 432 0 430 429 728 592 732 427 0 434 +17 379 0 430 728 102 41
 374 372 0 37 -17 732 0 730 727 594 595 432 427 0 0 -15 730 9407 0 727 338 0 17
 594 0 730 732 731 592 425 424 0 432 -16 427 9369 0 ?432 424 448 733 0 0 1 30 73
3 9371 0 427 230 515 0 +-.072 -.155 -.079 -1 0 0 30 230 9071 0 204 226 733 0 +.1
 -91550100833615e-27 -.039 1 1224646799147352e-31 342276635025492e-31 30 515 938
9 0 426 733 514 0 --.05 -.17 -.064 -1 0 0 16 426 9387 0 ?734 137 424 515 0 0 1 1
7 734 0 735 729 736 88 731 426 0 383 +15 735 1921 0 736 737 0 17 729 0 735 447 7
34 613 383 179 0 738 -17 736 0 735 734 447 590 178 176 0 731 -18 88 9384 0 734 8
5 590 664 ?1 17 731 0 730 594 727 590 734 426 0 0 -17 447 0 735 736 729 615 738
 445 0 739 +17 178 0 643 450 425 615 736 176 0 447 +17 450 0 643 190 178 70 739
 448 0 647 +17 425 0 643 178 434 590 594 424 0 736 +17 434 0 643 425 597 592 429
 428 0 0 -17 739 0 740 738 741 615 450 448 0 0 -17 647 0 438 181 185 70 190 188
 0 741 -15 438 1409 0 647 294 0 17 181 0 438 437 647 610 741 130 0 440 +17 185 0
 438 647 439 601 649 183 0 645 +17 741 0 740 739 612 70 181 130 0 0 -15 740 9345
 0 739 296 0 17 612 0 740 741 738 610 444 182 0 181 -17 738 0 740 612 739 613 44
7 445 0 0 -17 444 0 34 383 440 613 612 182 0 729 +17 440 0 34 444 441 610 437 39
1 0 0 -17 441 0 34 440 390 58 173 171 0 653 -17 390 0 34 441 395 54 742 365 0 17
3 +17 173 0 530 743 653 54 441 171 0 354 +17 653 0 530 173 203 58 439 205 0 0 -1
7 439 0 438 185 437 603 653 205 0 649 +16 205 1675 0 ?439 356 174 197 0 0 1 17 6
49 0 648 607 645 603 185 183 0 0 -17 743 0 530 713 173 51 354 175 0 0 -18 54 163
4 0 390 58 51 744 ?1 17 354 0 698 742 53 54 743 175 0 0 +15 698 1415 0 742 695 0
 17 742 0 698 388 354 49 390 365 0 745 -17 53 0 698 354 388 51 746 363 0 367 +17
 388 0 698 53 742 46 745 386 0 746 +17 746 0 96 65 367 46 53 363 0 0 -17 367 0 9
6 746 57 51 713 174 0 743 +17 713 0 530 405 743 50 367 174 0 0 -17 405 0 530 406
 713 403 358 356 0 722 -18 403 3589 0 399 548 413 724 ?1 17 65 0 96 40 746 63 48
 359 0 747 +17 40 0 96 60 65 32 748 124 0 370 -17 48 0 702 745 747 46 65 359 0 3
88 -17 747 0 702 48 662 63 393 362 0 748 -15 702 2174 0 662 699 0 17 662 0 702 7
47 745 660 395 361 0 35 -17 393 0 749 750 748 660 747 362 0 0 +17 748 0 749 393
 375 63 40 124 0 0 +15 749 11838 0 393 343 0 17 375 0 749 748 750 32 39 371 0 0
 -16 124 11816 0 ?748 150 376 122 0 0 1 17 750 0 749 375 393 12 35 376 0 0 -17 3
9 0 373 37 370 12 375 371 0 750 +15 373 11841 0 37 751 0 17 37 0 373 374 39 41 3
1 38 0 0 +18 41 11775 0 36 32 59 43 ?1 14 751 11839 752 ?0 343 373 6 753 +0 0 0
 343 27 81 1 752 12170 671 751 0 0 754 0 755 14 343 11836 754 ?751 336 749 6 219
 -0 0 751 336 27 50 753 11851 0 751 0 219 0 +-.05 -.092 -.079 0 -1 0 0 0 -1 50 2
19 11849 0 343 753 212 0 +.05 -.092 -.0424652800580552 0 0 -1 -1 0 0 81 1 754 12
169 671 343 0 0 342 752 756 80 255 1 671 0 757 8001 0 0 0 0 3 5 0 0 0 FFFFTFTFFF
FFFF2 81 1 342 12168 671 336 758 0 335 754 759 83 255 3 756 .8823529 .9607843 1
 81 1 758 12077 760 336 761 342 762 0 763 81 1 335 12167 671 331 762 0 764 342 7
65 83 3 759 .8823529 .9607843 1 81 1 762 12075 760 331 766 335 767 758 768 81 1
 764 12166 671 117 767 0 769 335 770 83 3 765 .8823529 .9607843 1 14 117 9468 76
4 ?331 338 90 6 22 +0 0 331 338 27 81 1 767 12073 760 117 771 764 772 762 773 81
 1 769 12165 671 338 772 0 774 764 775 83 3 770 .8823529 .9607843 1 14 338 9406
 769 ?117 296 730 6 332 +0 0 117 296 27 81 1 772 12071 760 338 776 769 777 767 7
78 81 1 774 12164 671 296 777 0 779 769 780 83 3 775 .8823529 .9607843 1 14 296
 9344 774 ?338 715 740 6 289 +0 0 338 715 27 81 1 777 12069 760 296 781 774 782
 772 783 81 1 779 12163 671 715 782 0 784 774 785 83 3 780 .8823529 .9607843 1 1
4 715 9282 779 ?296 268 714 6 786 +0 0 296 268 27 81 1 782 12067 760 715 787 779
 788 777 789 81 1 784 12162 671 268 788 0 267 779 790 83 3 785 .8823529 .9607843
 1 14 268 7659 784 ?715 265 560 6 261 -0 0 715 265 27 81 1 788 12065 760 268 791
 784 792 782 793 81 1 267 12161 671 265 792 0 670 784 794 83 3 790 .8823529 .960
7843 1 81 1 792 12063 760 265 795 267 672 788 796 83 3 794 .8823529 .9607843 1 8
0 1 760 797 798 8015 0 0 0 0 3 5 0 0 0 FFFFTFFFFFFFFF2 81 1 795 7688 799 265 0 7
92 800 791 801 81 1 672 12061 760 269 800 670 802 792 803 83 1 796 0 81 1 800 76
87 799 269 0 672 804 795 805 81 1 802 12059 760 543 804 673 687 672 806 83 1 803
 0 81 1 804 7686 799 543 0 802 807 800 808 81 1 673 12159 671 543 802 0 685 670
 809 81 1 687 12057 760 675 810 685 811 802 812 83 1 806 0 81 1 810 11011 813 67
5 807 687 814 776 0 81 1 811 12055 760 21 815 688 816 687 817 83 1 812 0 81 1 81
5 3818 799 21 0 811 818 819 820 81 1 688 12157 671 21 811 0 705 685 821 81 1 816
 12053 760 690 814 705 822 811 823 83 1 817 0 81 1 814 10920 813 690 824 816 0 8
10 0 81 1 705 12156 671 690 816 0 825 688 826 81 1 822 12051 760 207 827 825 828
 816 829 83 1 823 0 14 207 3548 825 ?690 699 648 6 198 +0 0 690 699 27 81 1 827
 11463 813 207 830 822 831 781 0 81 1 825 12155 671 207 822 0 701 705 832 81 1 8
28 12049 760 699 833 701 834 822 835 83 1 829 0 81 1 833 2194 799 699 0 828 836
 830 837 81 1 701 12154 671 699 828 0 838 825 839 81 1 834 12047 760 108 836 838
 840 828 841 83 1 835 0 14 108 2050 838 ?699 737 107 6 297 -0 0 699 737 27 81 1
 836 2107 799 108 0 834 842 833 843 81 1 838 12153 671 108 834 0 844 701 845 81
 1 840 12045 760 737 831 844 846 834 847 83 1 841 0 14 737 1920 844 ?108 220 735
 6 221 -0 0 108 220 27 81 1 831 11462 813 737 842 840 848 827 0 81 1 844 12152 6
71 737 840 0 849 838 850 81 1 846 12043 760 220 851 849 852 840 853 83 1 847 0 1
4 220 1421 849 ?737 695 720 6 213 +217 217 737 695 27 81 1 851 1530 799 220 0 84
6 854 855 856 81 1 849 12151 671 220 846 0 697 844 857 81 1 852 12041 760 695 85
4 697 858 846 859 83 1 853 0 81 1 854 1527 799 695 0 852 860 851 861 81 1 697 12
150 671 695 852 0 703 849 862 81 1 858 12039 760 635 860 703 863 852 864 83 1 85
9 0 81 1 860 1522 799 635 0 858 865 854 866 81 1 703 12149 671 635 858 0 867 697
 868 81 1 863 12037 760 567 865 867 869 858 870 83 1 864 0 14 567 274 867 ?635 6
68 505 6 871 +0 0 635 668 27 81 1 865 338 799 567 0 863 872 860 873 81 1 867 121
48 671 567 863 0 874 703 875 81 1 869 12035 760 668 872 874 876 863 877 83 1 870
 0 14 668 271 874 ?567 539 499 6 694 +0 0 567 539 27 81 1 872 337 799 668 0 869
 878 865 879 81 1 874 12147 671 668 869 0 880 867 881 81 1 876 12033 760 539 878
 880 882 869 883 83 1 877 0 14 539 268 880 ?668 551 494 6 272 +0 0 668 551 27 81
 1 878 336 799 539 0 876 884 872 885 81 1 880 12146 671 539 876 0 886 874 887 81
 1 882 12031 760 551 884 886 888 876 889 83 1 883 0 14 551 265 886 ?539 345 490
 6 692 +0 0 539 345 27 81 1 884 335 799 551 0 882 890 878 891 81 1 886 12145 671
 551 882 0 892 880 893 81 1 888 12029 760 345 894 892 895 882 896 83 1 889 0 14
 345 8 892 ?551 293 897 6 340 -0 0 551 293 27 81 1 894 40 799 345 0 888 0 898 89
9 81 1 892 12144 671 345 888 0 900 886 901 81 1 895 12027 760 293 898 900 902 88
8 903 83 1 896 0 14 293 87 900 ?345 288 657 6 346 +0 0 345 288 27 81 1 898 88 79
9 293 0 895 894 890 904 81 1 900 12143 671 293 895 0 292 892 905 81 1 902 12025
 760 288 890 292 906 895 907 83 1 903 0 81 1 890 169 799 288 0 902 898 884 908 8
1 1 292 12142 671 288 902 0 709 900 909 81 1 906 12023 760 294 848 709 708 902 9
10 83 1 907 0 81 1 848 11461 813 294 855 906 911 831 0 81 1 709 12141 671 294 90
6 0 707 292 912 81 1 708 12021 760 216 913 707 914 906 915 83 1 910 0 81 1 913 1
699 799 216 0 708 855 916 917 81 1 914 12019 760 211 916 215 918 708 919 83 1 91
5 0 81 1 916 1712 799 211 0 914 913 920 921 81 1 215 12139 671 211 914 0 922 707
 923 81 1 918 12017 760 217 920 922 924 914 925 83 1 919 0 14 217 1767 922 ?211
 716 641 6 213 +220 220 211 716 27 81 1 920 1769 799 217 0 918 916 842 926 81 1
 922 12138 671 217 918 0 927 215 928 81 1 924 12015 760 716 818 927 929 918 930
 83 1 925 0 14 716 3750 927 ?217 644 410 6 931 +0 0 217 644 27 81 1 818 3751 799
 716 0 924 824 815 932 81 1 927 12137 671 716 924 0 933 922 934 81 1 929 12013 7
60 644 911 933 935 924 936 83 1 930 0 14 644 3835 933 ?716 99 643 6 208 +0 0 716
 99 27 81 1 911 11458 813 644 819 929 776 848 0 81 1 933 12136 671 644 929 0 679
 927 937 81 1 935 12011 760 99 938 679 678 929 939 83 1 936 0 81 1 938 11789 799
 99 0 935 761 940 941 81 1 679 12135 671 99 935 0 676 933 942 81 1 678 12009 760
 19 940 676 0 935 943 83 1 939 0 81 1 940 11801 799 19 0 678 938 0 944 83 1 943
 0 80 1 799 142 945 9000 0 0 0 0 3 6 0 0 0 FFFFTFFFFFFFFF1 82 255 1 944 2393 79
 255 23 945 SolidEdge/MNKR_ATTR_CID83 3 942 .8823529 .9607843 1 81 1 761 9670 79
9 336 0 758 766 938 946 82 1 941 2393 81 1 766 9588 799 331 0 762 771 761 947 82
 1 946 905 81 1 771 9498 799 117 0 767 948 766 949 82 1 947 901 81 1 948 9497 79
9 338 0 776 950 771 951 82 1 949 780 81 1 776 11013 813 338 948 772 810 911 0 81
 1 950 9496 799 296 0 781 787 948 952 82 1 951 780 81 1 781 11464 813 296 950 77
7 827 0 0 81 1 787 9495 799 715 0 782 791 950 953 82 1 952 780 81 1 791 7689 799
 268 0 788 795 787 954 82 1 953 780 82 1 954 1477 80 1 813 799 955 9000 1 1 1 1
 1 1 1 1 0 FFFFTFTTFFFFFF1 79 17 955 SolidEdge/Display83 3 937 .8823529 .9607843
 1 81 1 819 3836 799 644 0 911 815 807 956 81 1 807 3879 799 675 0 810 819 804 9
57 82 1 956 2393 82 1 957 2452 50 208 10972 0 644 931 198 0 +-.068 -.13 -.075 -1
 0 0 0 0 1 50 931 10882 0 716 871 208 0 +.068 -.13 -.01589664090487855 1 0 -4696
1079777139e-29 -46961079777139e-29 0 -1 50 871 10016 0 567 272 931 0 +-.038 .105
185251619251 .025 0 0 -1 -1 0 0 50 272 10015 0 539 261 871 0 +.038 .105185251619
251 -.025 0 0 1 1 0 0 83 3 934 .8823529 .9607843 1 81 1 824 3702 799 690 0 814 8
30 818 958 82 1 932 2393 81 1 830 3701 799 207 0 827 833 824 959 82 1 958 2831 8
2 1 959 2831 83 3 928 .8823529 .9607843 1 81 1 842 2106 799 737 0 831 920 836 96
0 82 1 926 2393 82 1 960 3054 83 3 923 .8823529 .9607843 1 82 1 921 495 81 1 855
 1685 799 294 0 848 851 913 961 82 1 917 2393 82 1 961 2393 83 3 912 .8823529 .9
607843 1 83 3 909 .8823529 .9607843 1 82 1 908 671 83 3 905 .8823529 .9607843 1
 82 1 904 495 50 346 9819 0 293 340 240 0 +0 1734723475976805e-33 -.055 0 0 -1 -
1 0 0 51 240 9995 0 543 346 246 962 +.03 .105185251619251 -.017 0 1 0 .008 0 0 1
 141 962 235 963 963 240 141 963 313 962 962 240 83 3 901 .8823529 .9607843 1 82
 1 899 495 15 897 48 0 486 345 964 17 486 0 897 486 486 0 965 485 0 0 +15 964 7
 0 510 345 0 17 510 0 964 510 510 0 508 504 0 0 -17 965 0 295 965 965 0 486 485
 0 0 -15 295 69 0 965 288 544 83 3 893 .8823529 .9607843 1 82 1 891 967 83 3 887
 .8823529 .9607843 1 82 1 885 967 83 3 881 .8823529 .9607843 1 82 1 879 967 50 6
94 7405 0 668 221 692 0 +-.038 .105185251619251 -.023 1 0 0 0 0 -1 50 221 6389 0
 737 213 694 0 +-.05 -.17 -.075 0 1 0 0 0 1 83 3 875 .8823529 .9607843 1 82 1 87
3 967 83 3 868 .8823529 .9607843 1 82 1 866 2393 83 3 862 .8823529 .9607843 1 82
 1 861 2393 83 3 857 .8823529 .9607843 1 82 1 856 2393 83 3 850 .8823529 .960784
3 1 83 3 845 .8823529 .9607843 1 82 1 843 3054 50 297 11999 0 108 290 786 0 +.1
 -.1635193582025295 .02037274199886365 0 .78801075360672 -.615661475325662 0 .61
5661475325662 .78801075360672 51 786 12000 0 715 297 22 0 +.05 -.186964726773911
5 -.034 -1 0 2958228394578795e-46 .015 2958228394578795e-46 0 1 51 22 12001 0 11
7 786 7 0 +.1 -.210403295569113 -.064 1 0 0 .015 0 0 -1 83 3 839 .8823529 .96078
43 1 82 1 837 3134 83 3 832 .8823529 .9607843 1 83 3 826 .8823529 .9607843 1 83
 3 821 .8823529 .9607843 1 82 1 820 2381 83 3 809 .8823529 .9607843 1 82 1 808 1
477 82 1 805 1477 82 1 801 1477 79 21 798 SDL/TYSA_TRANSLUCENCY83 1 793 0 83 1 7
89 0 83 1 783 0 83 1 778 0 83 1 773 0 83 1 768 0 83 1 763 0 79 15 757 SDL/TYSA_C
OLOUR83 3 755 .8823529 .9607843 1 17 35 0 34 395 31 660 750 376 0 393 +17 395 0
 34 390 35 49 662 361 0 742 +18 49 2130 0 395 63 46 725 ?1 29 725 8389 0 49 744
 724 -.05 -.078 -.0304652800580552 29 744 8384 0 54 663 725 -.05 -.0331662479035
54 -.0304652800580552 29 663 11867 0 660 0 744 -.05 -.09 -.0424652800580552 17 7
45 0 702 662 48 49 388 386 0 0 -17 60 0 96 97 40 59 370 369 0 102 -17 102 0 430
 379 95 59 97 103 0 374 +17 404 0 706 414 722 413 399 398 0 0 -17 477 0 720 397
 629 655 658 355 0 0 +17 629 0 720 477 475 55 638 329 0 966 -17 638 0 545 326 96
6 585 629 329 0 0 +16 329 1731 0 ?638 352 356 321 0 0 1 17 966 0 545 638 632 55
 659 523 0 658 -17 632 0 545 966 28 630 637 352 0 659 -17 659 0 657 651 658 630
 966 523 0 480 +16 523 1619 0 ?659 328 521 330 0 0 1 31 330 11764 0 523 321 347
 0 -0 -.011 -.055 0 0 -1 -1 0 0 .042 17 480 0 641 637 168 630 651 478 0 0 +16 35
2 1734 0 ?637 386 329 347 0 0 1 15 146 3747 0 140 716 0 17 74 0 96 57 69 72 113
 126 0 711 +50 209 11423 0 294 198 289 0 +-.09 -.1262237944997192 -.014662375071
92232 612323399573677e-31 -.1391731009600654 .990268068741571 1 777382579981374e
-31 -509087055514154e-31 83 3 710 .8823529 .9607843 1 15 691 3786 0 147 21 967 1
7 147 0 691 147 147 0 140 138 0 0 -15 967 3787 0 968 21 0 17 968 0 967 968 968 0
 148 23 0 0 -17 148 0 681 148 148 0 968 23 0 0 +15 681 3760 0 148 99 96 83 3 689
 .8823529 .9607843 1 83 3 680 .8823529 .9607843 1 83 3 674 .8823529 .9607843 1 1
6 158 9622 0 ?597 29 423 156 0 0 1 15 152 3832 0 149 644 0 81 1 511 1279 142 487
 0 0 0 143 969 80 1 142 970 971 9000 0 0 0 0 3 6 0 0 0 FFFFTFTTFFFFFF1 81 1 143
 3572 142 165 0 0 511 139 972 82 1 969 17 82 1 972 17 79 27 971 SolidEdge/MNKR_A
TTR_TYPE_EX15 218 24 0 508 211 525 30 260 10873 0 170 224 416 0 +.068 -.13 -.079
 0 1 0 40 6 316 0 1 6 .00101408007040997 .3546799590515255 ??.038 .0068885438199
9833 -.017 .0379000256019163 .00709939389521341 -.0182607916120703 .037532449409
2618 .00784980746164806 -.0196948480285373 .03650607805824455 .0097679143104298
 -.0216552065797372 .03374940551741615 .0139995525404156 -.02406696244973535 .03
 .01839387691339815 -.025 41 1 317 L.038 .00688854381999833 -.017 41 1 318 L.03
 .01839387691339815 -.025 40 7 310 0 1 7 .001031488056166104 .3581843978171765 ?
?-.03 .01839387691339815 -.025 -.0336608453151725 .01411866821047704 -.024113241
9878969 -.03655459770330645 .00968239315817736 -.02158663808772935 -.03732314700
374665 .0082609111346457 -.02022048411912195 -.03786462683482955 .00717333306411
088 -.01846548447582325 -.0379958694317138 .00689731561235256 -.0172570448034588
5 -.038 .00688854381999846 -.017 41 1 311 L-.03 .01839387691339815 -.025 41 1 31
2 L-.038 .00688854381999846 -.017 40 7 302 0 1 7 .001031488056166104 .3581843978
171765 ??.03 .01839387691339815 .025 .0336608453151725 .01411866821047704 .02411
32419878969 .03655459770330645 .00968239315817736 .02158663808772935 .0373231470
0374665 .0082609111346457 .02022048411912195 .03786462683482955 .007173333064110
88 .01846548447582325 .0379958694317138 .00689731561235256 .01725704480345885 .0
38 .00688854381999846 .017 41 1 303 L.03 .01839387691339815 .025 41 1 304 L.038
 .00688854381999846 .017 141 273 285 973 973 261 141 973 224 273 273 261 141 271
 287 974 974 246 141 974 239 271 271 246 40 6 262 0 1 6 .000518900987473986 .358
6519254409195 ??.038 .0464327470649756 .017 .03767988308903545 .0466928946457234
 .01924040079868485 .03680090039944355 .0473887510891586 .0212128082981366 .0349
939709728321 .0487383011147556 .0232498203112178 .0326822298121721 .050317709153
9785 .02453695185301695 .03 .0519615242270663 .025 41 1 263 L.038 .0464327470649
756 .017 41 1 264 L.03 .0519615242270663 .025 40 6 247 0 1 6 .000518900987473986
 .358651925440919 ??-.038 .0464327470649756 -.017 -.03767988308903545 .046692894
6457234 -.01924040079868485 -.03680090039944355 .0473887510891587 -.021212808298
1366 -.0349939709728321 .0487383011147556 -.0232498203112178 -.0326822298121721
 .0503177091539785 -.02453695185301695 -.03 .0519615242270663 -.025 41 1 248 L-.
038 .0464327470649756 -.017 41 1 249 L-.03 .0519615242270663 -.025 40 6 241 0 1
 6 .00076888969241105 .3772557544389675 ??.03 .0519615242270663 -.025 .033397360
7093293 .0498459255872629 -.02424278539035265 .0359450904582715 .048041133125132
2 -.02235312053320015 .0373033775767422 .0469942339161626 -.02026506906076105 .0
3791621889262365 .0465011864890204 -.01815476337146135 .038 .0464327470649756 -.
017 41 1 242 L.03 .0519615242270663 -.025 41 1 243 L.038 .0464327470649756 -.017
 40 6 232 0 1 6 .001157531145655898 .3470419500593295 ??.056568541166521 -.02000
00037572905 -.019 .0584244455543611 -.01365958131369684 -.020031629198025 .05948
80070678614 -.00782157369677473 -.0231353874054649 .0599047905893637 -.003378766
70465497 -.02787639430136655 .0599962742609554 -.000668636526234485 -.0338718047
7734855 .06 -915566880615189e-28 -.039 41 1 233 L.056568541166521 -.020000003757
2905 -.019 41 1 234 L.06 -915566880615189e-28 -.039 141 210 195 210 210 198 81 1
 162 9608 142 160 0 0 144 0 975 81 1 144 3852 142 150 0 0 139 162 976 82 1 975 1
7 82 1 976 17 82 1 145 17 19 20 30 0 1 0 10 6 S50 18 132 0 1 977 4 0 +0 0 0 0 1
 0 0 0 1 50 977 131 0 1 0 18 0 +0 0 0 1 0 0 0 1 0 74 4 CI16 index_map_offset0 0
 1 dCCZ20 17 7 0 0 162 940 781 14 752 758 2 0 0 0 0 0 0 0 0 0 0 0 0 0 81 5 14 51
86 978 1 0 2 0 0 979 0 980 981 982 80 5 978 813 983 9000 0 0 0 0 3 6 0 0 0 TTTFF
FFFFFFFFF1 1 2 1 2 82 9 979 1 1751 62 1 1 1 1 0 0 83 2 980 0 0 82 1 981 17458800
65 83 2 982 .084869697850115 .041 79 21 983 SolidEdge/PatternData80 2 13 984 985
 8004 0 0 0 0 3 5 0 0 0 FFTFFFFFFFFFFF2 3 83 1 15 7830.64 84 255 8 16 Kg/Cu M 79
 16 985 SDL/TYSA_DENSITY1 0 
